<?xml version="1.0" encoding="UTF-8"?>
<svg xmlns="http://www.w3.org/2000/svg" xmlns:xlink="http://www.w3.org/1999/xlink" width="592pt" height="413pt" viewBox="0 0 592 413" version="1.1">
<g id="surface1">
<rect x="0" y="0" width="592" height="413" style="fill:rgb(100%,100%,100%);fill-opacity:1;stroke:none;"/>
<path style=" stroke:none;fill-rule:nonzero;fill:rgb(72.941176%,21.960784%,20.392157%);fill-opacity:1;" d="M 26.910156 377.257813 L 27.960938 377.339844 L 29.015625 377.570313 L 30.070313 377.945313 L 31.121094 378.457031 L 32.175781 379.089844 L 33.226563 379.84375 L 34.28125 380.6875 L 35.335938 381.59375 L 36.386719 382.542969 L 37.441406 383.523438 L 38.496094 384.511719 L 39.546875 385.492188 L 40.601563 386.441406 L 41.652344 387.351563 L 42.707031 388.210938 L 43.761719 389.011719 L 44.8125 389.746094 L 45.867188 390.417969 L 46.917969 391.019531 L 47.972656 391.546875 L 49.027344 392.003906 L 50.078125 392.402344 L 51.132813 392.742188 L 52.1875 393.035156 L 53.238281 393.277344 L 54.292969 393.476563 L 55.34375 393.640625 L 56.398438 393.769531 L 57.453125 393.875 L 58.503906 393.957031 L 59.558594 394.023438 L 60.609375 394.078125 L 61.664063 394.117188 L 62.71875 394.144531 L 63.769531 394.167969 L 64.824219 394.183594 L 65.878906 394.195313 L 66.929688 394.207031 L 67.984375 394.210938 L 69.035156 394.214844 L 71.144531 394.222656 L 72.195313 394.222656 L 73.25 394.226563 L 132.226563 394.226563 L 133.28125 394.222656 L 135.386719 394.222656 L 137.496094 394.214844 L 138.546875 394.210938 L 139.601563 394.207031 L 140.652344 394.199219 L 142.761719 394.175781 L 143.8125 394.160156 L 144.867188 394.140625 L 145.921875 394.117188 L 146.972656 394.085938 L 148.027344 394.050781 L 149.078125 394.007813 L 150.132813 393.957031 L 151.1875 393.894531 L 152.238281 393.824219 L 153.292969 393.742188 L 154.34375 393.648438 L 155.398438 393.539063 L 156.453125 393.421875 L 157.503906 393.289063 L 158.558594 393.144531 L 159.613281 392.984375 L 160.664063 392.816406 L 161.71875 392.632813 L 162.769531 392.445313 L 163.824219 392.246094 L 164.878906 392.039063 L 165.929688 391.828125 L 166.984375 391.613281 L 168.035156 391.398438 L 169.089844 391.179688 L 170.144531 390.964844 L 171.195313 390.75 L 172.25 390.53125 L 173.304688 390.316406 L 174.355469 390.101563 L 175.410156 389.878906 L 176.460938 389.65625 L 177.515625 389.421875 L 178.570313 389.171875 L 179.621094 388.910156 L 180.675781 388.625 L 181.730469 388.316406 L 182.78125 387.976563 L 183.835938 387.59375 L 184.886719 387.171875 L 185.941406 386.699219 L 186.996094 386.171875 L 188.046875 385.589844 L 189.101563 384.945313 L 190.152344 384.234375 L 191.207031 383.441406 L 192.261719 382.566406 L 193.3125 381.609375 L 194.367188 380.570313 L 195.421875 379.445313 L 196.472656 378.234375 L 197.527344 376.933594 L 198.578125 375.535156 L 199.632813 374.046875 L 200.6875 372.46875 L 201.738281 370.8125 L 202.792969 369.078125 L 203.84375 367.269531 L 204.898438 365.390625 L 205.953125 363.445313 L 207.003906 361.4375 L 208.058594 359.375 L 209.113281 357.265625 L 210.164063 355.113281 L 211.21875 352.917969 L 212.269531 350.683594 L 213.324219 348.40625 L 214.378906 346.085938 L 215.429688 343.726563 L 216.484375 341.320313 L 217.535156 338.871094 L 218.589844 336.375 L 219.644531 333.832031 L 220.695313 331.238281 L 221.75 328.585938 L 222.804688 325.882813 L 223.855469 323.136719 L 224.910156 320.351563 L 225.960938 317.527344 L 227.015625 314.675781 L 228.070313 311.800781 L 229.121094 308.914063 L 230.175781 306.019531 L 231.230469 303.128906 L 232.28125 300.246094 L 233.335938 297.375 L 234.386719 294.519531 L 235.441406 291.683594 L 236.496094 288.867188 L 237.546875 286.070313 L 238.601563 283.28125 L 239.652344 280.5 L 241.761719 274.945313 L 242.8125 272.15625 L 243.867188 269.355469 L 244.921875 266.535156 L 245.972656 263.695313 L 247.027344 260.835938 L 248.078125 257.960938 L 249.132813 255.066406 L 250.1875 252.160156 L 251.238281 249.242188 L 252.292969 246.320313 L 253.34375 243.402344 L 254.398438 240.488281 L 255.453125 237.589844 L 256.503906 234.707031 L 257.558594 231.839844 L 258.613281 228.992188 L 259.664063 226.164063 L 260.71875 223.351563 L 261.769531 220.550781 L 262.824219 217.753906 L 263.878906 214.949219 L 264.929688 212.132813 L 265.984375 209.292969 L 267.039063 206.40625 L 268.089844 203.464844 L 269.144531 200.457031 L 270.195313 197.371094 L 271.25 194.1875 L 272.304688 190.898438 L 273.355469 187.488281 L 274.410156 183.921875 L 275.460938 180.210938 L 276.515625 176.347656 L 277.570313 172.332031 L 278.621094 168.160156 L 279.675781 163.832031 L 280.730469 159.351563 L 281.78125 154.707031 L 282.835938 149.921875 L 283.886719 145.023438 L 284.941406 140.019531 L 285.996094 134.925781 L 287.046875 129.769531 L 288.101563 124.558594 L 289.152344 119.324219 L 290.207031 114.082031 L 291.261719 108.859375 L 292.3125 103.667969 L 293.367188 98.53125 L 294.421875 93.460938 L 295.472656 88.46875 L 296.527344 83.582031 L 297.578125 78.808594 L 298.632813 74.15625 L 299.6875 69.628906 L 300.738281 65.238281 L 301.792969 60.992188 L 302.847656 56.894531 L 303.898438 52.976563 L 304.953125 49.25 L 306.003906 45.710938 L 307.058594 42.363281 L 308.113281 39.222656 L 309.164063 36.289063 L 310.21875 33.578125 L 311.269531 31.101563 L 312.324219 28.886719 L 313.378906 26.90625 L 314.429688 25.152344 L 315.484375 23.625 L 316.539063 22.320313 L 317.589844 21.230469 L 318.644531 20.34375 L 319.695313 19.6875 L 320.75 19.210938 L 321.804688 18.910156 L 322.855469 18.773438 L 323.910156 18.792969 L 324.960938 18.964844 L 326.015625 19.285156 L 327.070313 19.773438 L 328.121094 20.410156 L 329.175781 21.195313 L 330.230469 22.125 L 331.28125 23.203125 L 332.335938 24.421875 L 333.386719 25.78125 L 334.441406 27.296875 L 335.496094 28.941406 L 336.546875 30.6875 L 337.601563 32.523438 L 338.65625 34.421875 L 339.707031 36.363281 L 340.761719 38.3125 L 341.8125 40.234375 L 342.867188 42.089844 L 343.921875 43.847656 L 344.972656 45.476563 L 346.027344 46.953125 L 347.078125 48.257813 L 348.132813 49.375 L 349.1875 50.277344 L 350.238281 50.964844 L 351.292969 51.464844 L 352.347656 51.808594 L 353.398438 52.019531 L 354.453125 52.132813 L 355.503906 52.195313 L 356.558594 52.253906 L 357.613281 52.382813 L 358.664063 52.636719 L 359.71875 53.070313 L 360.769531 53.722656 L 361.824219 54.644531 L 362.878906 55.871094 L 363.929688 57.4375 L 364.984375 59.425781 L 366.039063 61.777344 L 367.089844 64.488281 L 368.144531 67.535156 L 369.195313 70.902344 L 370.25 74.554688 L 371.304688 78.449219 L 372.355469 82.570313 L 373.410156 86.824219 L 374.464844 91.15625 L 375.515625 95.523438 L 376.570313 99.875 L 377.621094 104.171875 L 378.675781 108.378906 L 379.730469 112.441406 L 380.78125 116.34375 L 381.835938 120.082031 L 382.886719 123.652344 L 383.941406 127.054688 L 384.996094 130.296875 L 386.046875 133.386719 L 387.101563 136.332031 L 388.15625 139.160156 L 389.207031 141.910156 L 390.261719 144.597656 L 391.3125 147.25 L 392.367188 149.886719 L 393.421875 152.53125 L 394.472656 155.203125 L 395.527344 157.925781 L 396.578125 160.707031 L 397.632813 163.558594 L 398.6875 166.484375 L 399.738281 169.488281 L 400.792969 172.578125 L 401.847656 175.753906 L 402.898438 179.019531 L 403.953125 182.359375 L 405.003906 185.765625 L 406.058594 189.234375 L 407.113281 192.757813 L 408.164063 196.320313 L 409.21875 199.921875 L 410.269531 203.546875 L 411.324219 207.179688 L 412.378906 210.816406 L 413.429688 214.449219 L 414.484375 218.070313 L 415.539063 221.675781 L 416.589844 225.265625 L 417.644531 228.832031 L 418.695313 232.390625 L 419.75 235.941406 L 420.804688 239.496094 L 421.855469 243.070313 L 422.910156 246.667969 L 423.964844 250.304688 L 425.015625 254.007813 L 426.070313 257.78125 L 427.121094 261.636719 L 428.175781 265.574219 L 429.230469 269.597656 L 430.28125 273.710938 L 431.335938 277.90625 L 432.386719 282.179688 L 433.441406 286.507813 L 434.496094 290.859375 L 435.546875 295.214844 L 436.601563 299.546875 L 437.65625 303.824219 L 438.707031 308.019531 L 439.761719 312.085938 L 440.8125 315.984375 L 441.867188 319.699219 L 442.921875 323.214844 L 443.972656 326.511719 L 445.027344 329.578125 L 446.078125 332.398438 L 447.132813 334.960938 L 448.1875 337.253906 L 449.238281 339.316406 L 450.292969 341.167969 L 451.347656 342.820313 L 452.398438 344.296875 L 453.453125 345.617188 L 454.503906 346.800781 L 455.558594 347.871094 L 456.613281 348.867188 L 457.664063 349.808594 L 458.71875 350.722656 L 459.773438 351.621094 L 460.824219 352.519531 L 461.878906 353.433594 L 462.929688 354.371094 L 463.984375 355.335938 L 465.039063 356.332031 L 466.089844 357.351563 L 467.144531 358.390625 L 468.195313 359.445313 L 470.304688 361.570313 L 471.355469 362.617188 L 472.410156 363.636719 L 473.464844 364.628906 L 474.515625 365.578125 L 475.570313 366.484375 L 476.621094 367.339844 L 477.675781 368.128906 L 478.730469 368.863281 L 479.78125 369.535156 L 480.835938 370.152344 L 481.886719 370.71875 L 482.941406 371.234375 L 483.996094 371.703125 L 485.046875 372.125 L 486.101563 372.507813 L 487.15625 372.863281 L 488.207031 373.191406 L 489.261719 373.503906 L 490.3125 373.800781 L 491.367188 374.089844 L 492.421875 374.375 L 493.472656 374.660156 L 494.527344 374.957031 L 495.582031 375.261719 L 496.632813 375.585938 L 497.6875 375.925781 L 498.738281 376.296875 L 499.792969 376.695313 L 500.847656 377.132813 L 501.898438 377.605469 L 502.953125 378.113281 L 504.003906 378.660156 L 505.058594 379.246094 L 506.113281 379.867188 L 507.164063 380.523438 L 508.21875 381.210938 L 509.273438 381.925781 L 510.324219 382.652344 L 511.378906 383.390625 L 512.429688 384.128906 L 513.484375 384.863281 L 514.539063 385.585938 L 515.589844 386.28125 L 516.644531 386.949219 L 517.695313 387.578125 L 518.75 388.164063 L 519.804688 388.707031 L 520.855469 389.199219 L 521.910156 389.640625 L 522.964844 390.023438 L 524.015625 390.355469 L 525.070313 390.636719 L 526.121094 390.875 L 527.175781 391.070313 L 528.230469 391.226563 L 529.28125 391.347656 L 530.335938 391.4375 L 531.390625 391.503906 L 532.441406 391.558594 L 533.496094 391.597656 L 534.546875 391.632813 L 535.601563 391.664063 L 536.65625 391.699219 L 537.707031 391.742188 L 538.761719 391.789063 L 539.8125 391.851563 L 540.867188 391.921875 L 541.921875 392.007813 L 542.972656 392.101563 L 544.027344 392.207031 L 545.082031 392.324219 L 546.132813 392.449219 L 547.1875 392.578125 L 548.238281 392.710938 L 550.347656 392.976563 L 551.398438 393.105469 L 552.453125 393.234375 L 553.503906 393.351563 L 554.558594 393.464844 L 555.613281 393.566406 L 556.664063 393.660156 L 557.71875 393.746094 L 558.773438 393.824219 L 559.824219 393.890625 L 560.878906 393.949219 L 561.929688 394 L 562.984375 394.042969 L 564.039063 394.078125 L 565.089844 394.109375 L 565.089844 394.226563 L 26.910156 394.226563 Z M 26.910156 377.257813 "/>
<path style="fill:none;stroke-width:4.267913;stroke-linecap:round;stroke-linejoin:round;stroke:rgb(40.392157%,12.156863%,10.980392%);stroke-opacity:1;stroke-miterlimit:10;" d="M 26.910156 377.257813 L 27.960938 377.339844 L 29.015625 377.570313 L 30.070313 377.945313 L 31.121094 378.457031 L 32.175781 379.089844 L 33.226563 379.84375 L 34.28125 380.6875 L 35.335938 381.59375 L 36.386719 382.542969 L 37.441406 383.523438 L 38.496094 384.511719 L 39.546875 385.492188 L 40.601563 386.441406 L 41.652344 387.351563 L 42.707031 388.210938 L 43.761719 389.011719 L 44.8125 389.746094 L 45.867188 390.417969 L 46.917969 391.019531 L 47.972656 391.546875 L 49.027344 392.003906 L 50.078125 392.402344 L 51.132813 392.742188 L 52.1875 393.035156 L 53.238281 393.277344 L 54.292969 393.476563 L 55.34375 393.640625 L 56.398438 393.769531 L 57.453125 393.875 L 58.503906 393.957031 L 59.558594 394.023438 L 60.609375 394.078125 L 61.664063 394.117188 L 62.71875 394.144531 L 63.769531 394.167969 L 64.824219 394.183594 L 65.878906 394.195313 L 66.929688 394.207031 L 67.984375 394.210938 L 69.035156 394.214844 L 71.144531 394.222656 L 72.195313 394.222656 L 73.25 394.226563 L 132.226563 394.226563 L 133.28125 394.222656 L 135.386719 394.222656 L 137.496094 394.214844 L 138.546875 394.210938 L 139.601563 394.207031 L 140.652344 394.199219 L 142.761719 394.175781 L 143.8125 394.160156 L 144.867188 394.140625 L 145.921875 394.117188 L 146.972656 394.085938 L 148.027344 394.050781 L 149.078125 394.007813 L 150.132813 393.957031 L 151.1875 393.894531 L 152.238281 393.824219 L 153.292969 393.742188 L 154.34375 393.648438 L 155.398438 393.539063 L 156.453125 393.421875 L 157.503906 393.289063 L 158.558594 393.144531 L 159.613281 392.984375 L 160.664063 392.816406 L 161.71875 392.632813 L 162.769531 392.445313 L 163.824219 392.246094 L 164.878906 392.039063 L 165.929688 391.828125 L 166.984375 391.613281 L 168.035156 391.398438 L 169.089844 391.179688 L 170.144531 390.964844 L 171.195313 390.75 L 172.25 390.53125 L 173.304688 390.316406 L 174.355469 390.101563 L 175.410156 389.878906 L 176.460938 389.65625 L 177.515625 389.421875 L 178.570313 389.171875 L 179.621094 388.910156 L 180.675781 388.625 L 181.730469 388.316406 L 182.78125 387.976563 L 183.835938 387.59375 L 184.886719 387.171875 L 185.941406 386.699219 L 186.996094 386.171875 L 188.046875 385.589844 L 189.101563 384.945313 L 190.152344 384.234375 L 191.207031 383.441406 L 192.261719 382.566406 L 193.3125 381.609375 L 194.367188 380.570313 L 195.421875 379.445313 L 196.472656 378.234375 L 197.527344 376.933594 L 198.578125 375.535156 L 199.632813 374.046875 L 200.6875 372.46875 L 201.738281 370.8125 L 202.792969 369.078125 L 203.84375 367.269531 L 204.898438 365.390625 L 205.953125 363.445313 L 207.003906 361.4375 L 208.058594 359.375 L 209.113281 357.265625 L 210.164063 355.113281 L 211.21875 352.917969 L 212.269531 350.683594 L 213.324219 348.40625 L 214.378906 346.085938 L 215.429688 343.726563 L 216.484375 341.320313 L 217.535156 338.871094 L 218.589844 336.375 L 219.644531 333.832031 L 220.695313 331.238281 L 221.75 328.585938 L 222.804688 325.882813 L 223.855469 323.136719 L 224.910156 320.351563 L 225.960938 317.527344 L 227.015625 314.675781 L 228.070313 311.800781 L 229.121094 308.914063 L 230.175781 306.019531 L 231.230469 303.128906 L 232.28125 300.246094 L 233.335938 297.375 L 234.386719 294.519531 L 235.441406 291.683594 L 236.496094 288.867188 L 237.546875 286.070313 L 238.601563 283.28125 L 239.652344 280.5 L 241.761719 274.945313 L 242.8125 272.15625 L 243.867188 269.355469 L 244.921875 266.535156 L 245.972656 263.695313 L 247.027344 260.835938 L 248.078125 257.960938 L 249.132813 255.066406 L 250.1875 252.160156 L 251.238281 249.242188 L 252.292969 246.320313 L 253.34375 243.402344 L 254.398438 240.488281 L 255.453125 237.589844 L 256.503906 234.707031 L 257.558594 231.839844 L 258.613281 228.992188 L 259.664063 226.164063 L 260.71875 223.351563 L 261.769531 220.550781 L 262.824219 217.753906 L 263.878906 214.949219 L 264.929688 212.132813 L 265.984375 209.292969 L 267.039063 206.40625 L 268.089844 203.464844 L 269.144531 200.457031 L 270.195313 197.371094 L 271.25 194.1875 L 272.304688 190.898438 L 273.355469 187.488281 L 274.410156 183.921875 L 275.460938 180.210938 L 276.515625 176.347656 L 277.570313 172.332031 L 278.621094 168.160156 L 279.675781 163.832031 L 280.730469 159.351563 L 281.78125 154.707031 L 282.835938 149.921875 L 283.886719 145.023438 L 284.941406 140.019531 L 285.996094 134.925781 L 287.046875 129.769531 L 288.101563 124.558594 L 289.152344 119.324219 L 290.207031 114.082031 L 291.261719 108.859375 L 292.3125 103.667969 L 293.367188 98.53125 L 294.421875 93.460938 L 295.472656 88.46875 L 296.527344 83.582031 L 297.578125 78.808594 L 298.632813 74.15625 L 299.6875 69.628906 L 300.738281 65.238281 L 301.792969 60.992188 L 302.847656 56.894531 L 303.898438 52.976563 L 304.953125 49.25 L 306.003906 45.710938 L 307.058594 42.363281 L 308.113281 39.222656 L 309.164063 36.289063 L 310.21875 33.578125 L 311.269531 31.101563 L 312.324219 28.886719 L 313.378906 26.90625 L 314.429688 25.152344 L 315.484375 23.625 L 316.539063 22.320313 L 317.589844 21.230469 L 318.644531 20.34375 L 319.695313 19.6875 L 320.75 19.210938 L 321.804688 18.910156 L 322.855469 18.773438 L 323.910156 18.792969 L 324.960938 18.964844 L 326.015625 19.285156 L 327.070313 19.773438 L 328.121094 20.410156 L 329.175781 21.195313 L 330.230469 22.125 L 331.28125 23.203125 L 332.335938 24.421875 L 333.386719 25.78125 L 334.441406 27.296875 L 335.496094 28.941406 L 336.546875 30.6875 L 337.601563 32.523438 L 338.65625 34.421875 L 339.707031 36.363281 L 340.761719 38.3125 L 341.8125 40.234375 L 342.867188 42.089844 L 343.921875 43.847656 L 344.972656 45.476563 L 346.027344 46.953125 L 347.078125 48.257813 L 348.132813 49.375 L 349.1875 50.277344 L 350.238281 50.964844 L 351.292969 51.464844 L 352.347656 51.808594 L 353.398438 52.019531 L 354.453125 52.132813 L 355.503906 52.195313 L 356.558594 52.253906 L 357.613281 52.382813 L 358.664063 52.636719 L 359.71875 53.070313 L 360.769531 53.722656 L 361.824219 54.644531 L 362.878906 55.871094 L 363.929688 57.4375 L 364.984375 59.425781 L 366.039063 61.777344 L 367.089844 64.488281 L 368.144531 67.535156 L 369.195313 70.902344 L 370.25 74.554688 L 371.304688 78.449219 L 372.355469 82.570313 L 373.410156 86.824219 L 374.464844 91.15625 L 375.515625 95.523438 L 376.570313 99.875 L 377.621094 104.171875 L 378.675781 108.378906 L 379.730469 112.441406 L 380.78125 116.34375 L 381.835938 120.082031 L 382.886719 123.652344 L 383.941406 127.054688 L 384.996094 130.296875 L 386.046875 133.386719 L 387.101563 136.332031 L 388.15625 139.160156 L 389.207031 141.910156 L 390.261719 144.597656 L 391.3125 147.25 L 392.367188 149.886719 L 393.421875 152.53125 L 394.472656 155.203125 L 395.527344 157.925781 L 396.578125 160.707031 L 397.632813 163.558594 L 398.6875 166.484375 L 399.738281 169.488281 L 400.792969 172.578125 L 401.847656 175.753906 L 402.898438 179.019531 L 403.953125 182.359375 L 405.003906 185.765625 L 406.058594 189.234375 L 407.113281 192.757813 L 408.164063 196.320313 L 409.21875 199.921875 L 410.269531 203.546875 L 411.324219 207.179688 L 412.378906 210.816406 L 413.429688 214.449219 L 414.484375 218.070313 L 415.539063 221.675781 L 416.589844 225.265625 L 417.644531 228.832031 L 418.695313 232.390625 L 419.75 235.941406 L 420.804688 239.496094 L 421.855469 243.070313 L 422.910156 246.667969 L 423.964844 250.304688 L 425.015625 254.007813 L 426.070313 257.78125 L 427.121094 261.636719 L 428.175781 265.574219 L 429.230469 269.597656 L 430.28125 273.710938 L 431.335938 277.90625 L 432.386719 282.179688 L 433.441406 286.507813 L 434.496094 290.859375 L 435.546875 295.214844 L 436.601563 299.546875 L 437.65625 303.824219 L 438.707031 308.019531 L 439.761719 312.085938 L 440.8125 315.984375 L 441.867188 319.699219 L 442.921875 323.214844 L 443.972656 326.511719 L 445.027344 329.578125 L 446.078125 332.398438 L 447.132813 334.960938 L 448.1875 337.253906 L 449.238281 339.316406 L 450.292969 341.167969 L 451.347656 342.820313 L 452.398438 344.296875 L 453.453125 345.617188 L 454.503906 346.800781 L 455.558594 347.871094 L 456.613281 348.867188 L 457.664063 349.808594 L 458.71875 350.722656 L 459.773438 351.621094 L 460.824219 352.519531 L 461.878906 353.433594 L 462.929688 354.371094 L 463.984375 355.335938 L 465.039063 356.332031 L 466.089844 357.351563 L 467.144531 358.390625 L 468.195313 359.445313 L 470.304688 361.570313 L 471.355469 362.617188 L 472.410156 363.636719 L 473.464844 364.628906 L 474.515625 365.578125 L 475.570313 366.484375 L 476.621094 367.339844 L 477.675781 368.128906 L 478.730469 368.863281 L 479.78125 369.535156 L 480.835938 370.152344 L 481.886719 370.71875 L 482.941406 371.234375 L 483.996094 371.703125 L 485.046875 372.125 L 486.101563 372.507813 L 487.15625 372.863281 L 488.207031 373.191406 L 489.261719 373.503906 L 490.3125 373.800781 L 491.367188 374.089844 L 492.421875 374.375 L 493.472656 374.660156 L 494.527344 374.957031 L 495.582031 375.261719 L 496.632813 375.585938 L 497.6875 375.925781 L 498.738281 376.296875 L 499.792969 376.695313 L 500.847656 377.132813 L 501.898438 377.605469 L 502.953125 378.113281 L 504.003906 378.660156 L 505.058594 379.246094 L 506.113281 379.867188 L 507.164063 380.523438 L 508.21875 381.210938 L 509.273438 381.925781 L 510.324219 382.652344 L 511.378906 383.390625 L 512.429688 384.128906 L 513.484375 384.863281 L 514.539063 385.585938 L 515.589844 386.28125 L 516.644531 386.949219 L 517.695313 387.578125 L 518.75 388.164063 L 519.804688 388.707031 L 520.855469 389.199219 L 521.910156 389.640625 L 522.964844 390.023438 L 524.015625 390.355469 L 525.070313 390.636719 L 526.121094 390.875 L 527.175781 391.070313 L 528.230469 391.226563 L 529.28125 391.347656 L 530.335938 391.4375 L 531.390625 391.503906 L 532.441406 391.558594 L 533.496094 391.597656 L 534.546875 391.632813 L 535.601563 391.664063 L 536.65625 391.699219 L 537.707031 391.742188 L 538.761719 391.789063 L 539.8125 391.851563 L 540.867188 391.921875 L 541.921875 392.007813 L 542.972656 392.101563 L 544.027344 392.207031 L 545.082031 392.324219 L 546.132813 392.449219 L 547.1875 392.578125 L 548.238281 392.710938 L 550.347656 392.976563 L 551.398438 393.105469 L 552.453125 393.234375 L 553.503906 393.351563 L 554.558594 393.464844 L 555.613281 393.566406 L 556.664063 393.660156 L 557.71875 393.746094 L 558.773438 393.824219 L 559.824219 393.890625 L 560.878906 393.949219 L 561.929688 394 L 562.984375 394.042969 L 564.039063 394.078125 L 565.089844 394.109375 "/>
</g>
</svg>
